<?xml version="1.0" standalone="no"?>
<!DOCTYPE svg PUBLIC "-//W3C//DTD SVG 20010904//EN"
 "http://www.w3.org/TR/2001/REC-SVG-20010904/DTD/svg10.dtd">
<svg version="1.0" xmlns="http://www.w3.org/2000/svg"
 width="500.000000pt" height="500.000000pt" viewBox="0 0 500.000000 500.000000"
 preserveAspectRatio="xMidYMid meet">

<g transform="translate(0.000000,500.000000) scale(0.100000,-0.100000)"
fill="#000000" stroke="none">
<path d="M2340 4590 c-724 -55 -1362 -468 -1689 -1092 -318 -607 -319 -1379
-3 -1968 174 -325 393 -570 672 -755 265 -175 509 -275 803 -328 104 -18 158
-22 372 -22 276 0 411 17 599 75 811 250 1350 872 1482 1715 20 123 22 409 5
550 -56 455 -261 877 -590 1219 -289 298 -695 506 -1136 581 -188 31 -334 39
-515 25z m358 -120 c759 -67 1396 -557 1666 -1282 147 -394 152 -897 13 -1318
-39 -118 -157 -358 -232 -469 -333 -493 -855 -804 -1453 -862 -156 -15 -406
-6 -557 20 -223 39 -528 160 -722 287 -450 294 -768 776 -858 1302 -78 459 -1
937 213 1317 97 174 173 275 307 414 331 343 759 547 1245 594 78 8 272 6 378
-3z"/>
<path d="M3600 3771 c-8 -5 -118 -50 -244 -101 l-229 -92 -81 41 c-117 58
-168 76 -286 101 -197 42 -363 38 -565 -11 -343 -84 -646 -333 -796 -653 -150
-324 -156 -668 -14 -987 167 -376 506 -645 902 -714 98 -17 328 -20 420 -5
501 82 917 495 998 991 39 240 2 486 -105 714 -45 94 -123 216 -176 275 l-37
41 35 37 c106 111 238 321 224 357 -6 17 -23 19 -46 6z m-930 -165 c371 -56
721 -342 846 -692 56 -157 67 -222 67 -384 0 -164 -22 -271 -86 -417 -126
-292 -423 -543 -727 -614 -119 -27 -328 -37 -438 -19 -241 38 -431 136 -600
309 -195 199 -297 428 -309 696 -14 294 70 542 258 764 143 169 408 319 619
350 41 6 86 13 100 15 60 8 182 5 270 -8z"/>
<path d="M2305 3445 c-289 -64 -526 -250 -650 -509 -55 -117 -78 -230 -79
-386 0 -263 73 -445 256 -636 94 -98 186 -162 299 -210 122 -51 183 -65 324
-71 161 -7 269 11 405 68 126 53 209 108 301 200 181 182 269 391 269 640 0
258 -87 466 -272 651 -138 138 -287 218 -467 252 -100 19 -301 20 -386 1z
m821 -360 c9 -24 -14 -71 -78 -157 -97 -131 -228 -248 -349 -314 -27 -15 -49
-31 -49 -35 0 -4 19 -17 43 -27 23 -11 70 -40 104 -66 69 -53 188 -187 188
-214 0 -39 -175 -23 -320 29 -132 48 -225 119 -289 219 -17 28 -29 36 -58 38
-30 3 -40 -1 -53 -22 -33 -50 13 -152 109 -245 89 -85 198 -134 328 -149 l63
-7 -75 -45 -75 -45 -120 0 c-118 0 -121 1 -199 37 -57 28 -96 56 -146 106 -93
93 -137 182 -161 326 -21 122 -43 162 -110 196 -21 11 -39 24 -39 29 0 5 17
12 39 16 26 4 50 19 77 46 51 53 83 69 136 69 62 -1 119 -30 163 -86 55 -69
63 -74 120 -74 117 0 216 51 525 270 165 117 213 139 226 105z"/>
<path d="M2009 2781 c-20 -16 -22 -23 -13 -38 17 -28 42 -28 55 1 12 25 7 56
-10 56 -5 0 -19 -9 -32 -19z"/>
</g>
</svg>
